<?xml version="1.0" standalone="no"?>
<!DOCTYPE svg PUBLIC "-//W3C//DTD SVG 20010904//EN"
 "http://www.w3.org/TR/2001/REC-SVG-20010904/DTD/svg10.dtd">
<svg version="1.0" xmlns="http://www.w3.org/2000/svg"
 width="512.000000pt" height="512.000000pt" viewBox="0 0 512.000000 512.000000"
 preserveAspectRatio="xMidYMid meet">
<metadata>
Created by potrace 1.14, written by Peter Selinger 2001-2017
</metadata>
<g transform="translate(0.000000,512.000000) scale(0.100000,-0.100000)"
fill="#000000" stroke="none">
<path d="M2630 4821 c-6 -12 -10 -135 -10 -330 l0 -311 -60 0 -60 0 0 104 c0
114 -9 136 -55 136 -46 0 -55 -23 -55 -133 l0 -102 -63 -30 c-50 -24 -68 -40
-92 -79 -29 -48 -30 -54 -33 -192 l-4 -142 -45 -17 c-57 -22 -108 -67 -136
-119 -17 -33 -22 -63 -25 -153 l-4 -113 -82 0 c-126 0 -126 0 -126 -174 0
-121 3 -146 17 -157 12 -11 79 -15 298 -19 l282 -5 -303 -612 -302 -613 -74 0
c-116 0 -118 -3 -118 -161 l0 -129 -215 0 -215 0 0 129 0 129 46 22 c47 23 80
64 91 113 l6 27 134 0 c189 0 223 23 223 150 l0 60 -69 0 -69 0 -4 131 c-4
162 -1 159 -144 159 l-102 0 -4 89 c-3 80 -6 94 -33 132 -52 73 -85 84 -271
87 -195 4 -233 -4 -290 -62 -48 -47 -64 -93 -64 -183 l0 -63 -103 0 c-139 0
-137 2 -137 -163 l0 -127 -75 0 -75 0 0 -55 c0 -63 17 -103 56 -134 24 -19 40
-21 166 -21 l139 0 6 -32 c8 -38 84 -118 113 -118 19 0 20 -6 20 -135 l0 -135
-27 0 c-38 0 -89 -33 -113 -72 -17 -29 -20 -51 -20 -175 l0 -143 -213 0 c-152
0 -216 -3 -225 -12 -24 -24 -13 -65 34 -120 101 -118 202 -331 234 -490 19
-96 23 -106 60 -141 l39 -37 2167 0 c2419 0 2200 -7 2243 70 28 50 26 84 -6
166 -26 67 -27 75 -27 269 0 280 27 454 120 783 65 228 54 250 -91 191 -138
-55 -352 -111 -520 -134 l-50 -7 26 28 c102 112 234 263 246 281 22 33 2 60
-122 166 l-30 25 61 69 c67 76 78 96 65 121 -12 23 -198 185 -222 194 -27 10
-48 -10 -309 -301 l-233 -261 -80 0 -81 0 25 28 c221 240 299 334 299 359 0
22 -16 43 -77 99 l-77 71 57 63 c88 98 93 88 -140 293 -15 13 -30 17 -46 13
-14 -3 -128 -122 -292 -306 l-268 -300 -128 0 c-70 0 -134 -3 -143 -6 -14 -5
-16 9 -16 122 l1 129 33 -70 c38 -82 56 -100 91 -91 54 14 51 42 -29 223 -85
196 -96 234 -96 342 l0 81 218 0 c181 0 221 3 240 16 21 14 22 22 22 159 0
172 -2 175 -111 175 l-66 0 -5 113 c-4 88 -9 121 -26 153 -27 52 -78 97 -136
119 l-46 18 0 141 c0 115 -4 148 -19 181 -23 52 -71 93 -127 107 l-44 12 0
316 c0 232 -3 319 -12 328 -20 20 -76 15 -88 -7z m146 -774 c21 -18 28 -35 32
-75 l5 -52 -47 0 c-56 0 -110 -21 -125 -48 -6 -12 -11 -37 -11 -57 0 -42 0
-42 -62 5 l-47 35 -1 92 c0 50 3 98 6 107 5 13 25 16 115 16 98 0 110 -2 135
-23z m158 -431 c37 -15 76 -60 76 -87 0 -17 -15 -18 -216 -21 l-216 -3 -23
-27 c-13 -15 -25 -33 -28 -40 -3 -8 -30 12 -75 57 -67 67 -69 71 -60 103 l9
32 250 0 c189 0 258 -3 283 -14z m266 -451 l0 -55 -308 0 -309 0 -12 41 c-7
23 -15 47 -18 55 -4 12 46 14 321 14 l326 0 0 -55z m-774 -1374 c-35 -37 -46
-73 -46 -152 l0 -69 -85 0 -85 0 0 79 c0 101 -11 111 -117 111 -40 0 -73 3
-73 7 0 4 96 201 213 437 l212 429 3 -409 2 -408 -24 -25z m-1036 429 l0 -60
-85 0 c-121 0 -125 -5 -125 -158 0 -130 -6 -148 -55 -158 -26 -4 -36 1 -75 40
l-44 46 36 0 c39 0 48 12 48 59 0 43 -16 51 -106 51 l-82 0 -36 44 c-34 42
-36 48 -36 120 l0 76 280 0 280 0 0 -60z m1814 -89 c9 -10 36 -68 60 -128 39
-100 41 -111 28 -131 -13 -20 -23 -22 -94 -22 l-80 0 -104 81 c-96 75 -104 84
-104 116 0 18 7 49 14 68 l15 35 124 0 c109 0 126 -2 141 -19z m625 -325 c17
-18 24 -42 31 -112 5 -49 10 -95 10 -101 0 -10 -26 -13 -98 -13 l-97 0 -89 76
-88 77 6 40 c4 22 9 44 12 49 3 4 69 8 148 8 137 0 143 -1 165 -24z m1041
-184 c0 -4 -9 -41 -21 -82 -28 -100 -74 -324 -90 -435 -7 -49 -13 -179 -14
-287 l0 -198 -1511 0 -1511 0 -58 163 c-32 89 -60 167 -62 174 -4 10 156 13
724 15 l728 3 58 23 c71 29 103 55 352 280 l200 182 85 0 c331 1 783 63 1015
139 103 33 105 34 105 23z"/>
<path d="M4307 1379 c-84 -44 -119 -157 -77 -244 85 -176 353 -115 353 80 0
77 -48 149 -116 174 -44 17 -118 12 -160 -10z"/>
</g>
</svg>
